<?xml version="1.0" encoding="utf-8"?>
<!DOCTYPE svg PUBLIC "-//W3C//DTD SVG 20010904//EN" "http://www.w3.org/TR/2001/REC-SVG-20010904/DTD/svg10.dtd">
<svg version="1.0" xmlns="http://www.w3.org/2000/svg" width="514pt" height="514pt" viewBox="0 0 514 514" style="" preserveAspectRatio="xMidYMid meet">
<g fill="#F6F6F6FF" stroke="#F6F6F6FF">
<path d="M 112.000 36.629 L 112.000 65.257 116.176 71.379 C 118.473 74.745 121.511 78.677 122.926 80.116 C 124.342 81.555 127.075 84.653 129.000 87.000 C 130.925 89.347 133.738 92.522 135.250 94.057 C 136.763 95.591 138.000 97.293 138.000 97.840 C 138.000 98.386 138.338 98.983 138.750 99.167 C 139.163 99.350 141.022 101.300 142.882 103.500 C 144.742 105.700 148.126 109.525 150.402 112.000 C 152.679 114.475 156.107 118.517 158.020 120.982 C 159.934 123.448 162.175 126.180 163.000 127.053 C 163.825 127.927 165.850 130.394 167.500 132.535 C 171.299 137.466 175.789 142.761 179.000 146.098 C 180.375 147.526 182.625 150.064 184.000 151.737 C 190.111 159.171 195.722 165.686 198.388 168.443 C 199.977 170.086 207.156 178.421 214.342 186.965 C 221.527 195.509 227.654 202.725 227.955 203.000 C 229.096 204.040 234.581 210.827 236.500 213.573 C 238.336 216.200 241.983 220.543 247.750 226.972 C 248.988 228.351 250.000 229.822 250.000 230.240 C 250.000 230.658 251.238 230.981 252.750 230.958 C 254.606 230.929 256.313 229.893 258.000 227.771 C 259.375 226.042 263.200 221.633 266.500 217.973 C 269.800 214.314 274.604 208.660 277.175 205.410 C 279.746 202.159 283.346 197.920 285.175 195.989 C 287.004 194.058 290.059 190.458 291.965 187.989 C 293.871 185.520 297.021 181.861 298.965 179.858 C 303.593 175.090 306.538 171.644 307.623 169.727 C 308.105 168.873 311.515 164.850 315.199 160.787 C 318.884 156.723 322.929 152.071 324.188 150.449 C 326.138 147.936 328.935 144.680 333.500 139.608 C 334.050 138.997 336.254 136.316 338.398 133.650 C 340.542 130.983 343.038 128.059 343.944 127.151 C 344.850 126.243 347.596 123.027 350.046 120.003 C 352.496 116.980 355.400 113.561 356.500 112.406 C 361.309 107.355 365.777 102.217 368.532 98.570 C 371.878 94.140 374.573 90.972 384.250 80.094 C 387.963 75.920 391.000 72.050 391.000 71.493 C 391.000 70.935 392.132 69.258 393.516 67.766 L 396.032 65.053 395.766 37.906 L 395.500 10.760 371.285 34.982 C 357.967 48.305 346.806 60.036 346.483 61.053 C 346.161 62.069 344.232 63.925 342.198 65.178 C 338.387 67.524 334.614 71.258 323.778 83.405 C 320.325 87.275 314.311 93.830 310.414 97.971 C 306.516 102.112 301.791 107.260 299.914 109.412 C 298.036 111.564 295.375 114.516 294.000 115.973 C 292.625 117.429 287.685 122.869 283.023 128.061 C 278.361 133.252 273.066 138.991 271.258 140.813 C 269.450 142.634 266.065 146.684 263.735 149.813 C 257.662 157.968 257.618 158.000 252.365 158.000 C 248.092 158.000 247.240 157.603 244.313 154.250 C 242.512 152.188 241.030 150.141 241.019 149.703 C 241.009 149.264 238.914 146.789 236.364 144.203 C 233.814 141.616 229.651 137.059 227.114 134.075 C 224.576 131.092 221.038 127.221 219.250 125.474 C 217.463 123.727 216.000 121.984 216.000 121.601 C 216.000 121.218 214.984 119.913 213.743 118.702 C 212.501 117.491 209.745 114.475 207.618 112.000 C 202.055 105.527 188.723 90.868 179.912 81.536 C 175.739 77.116 170.789 71.721 168.912 69.546 C 165.041 65.060 144.796 42.868 141.000 38.948 C 139.625 37.529 134.845 32.347 130.379 27.434 C 125.912 22.520 120.411 16.475 118.155 14.000 C 115.899 11.525 114.041 9.163 114.027 8.750 C 114.012 8.338 113.550 8.000 113.000 8.000 C 112.357 8.000 112.000 18.210 112.000 36.629 "/></g>
<g fill="#C9223CFF" stroke="#C9223CFF">
<path d="M 392.018 104.827 C 390.167 105.445 388.000 107.564 388.000 108.758 C 388.000 109.253 385.086 112.548 381.525 116.079 C 377.964 119.611 375.039 122.981 375.025 123.569 C 375.011 124.157 372.755 126.632 370.010 129.069 C 367.266 131.506 365.016 133.972 365.010 134.549 C 365.005 135.125 363.200 137.470 361.000 139.760 C 358.800 142.049 357.000 144.365 357.000 144.905 C 357.000 145.445 356.072 146.537 354.938 147.331 C 353.803 148.126 351.441 150.739 349.689 153.138 C 347.936 155.537 345.586 158.400 344.465 159.500 C 341.242 162.664 336.000 169.685 336.000 170.837 C 336.000 171.414 335.213 172.479 334.250 173.203 C 331.448 175.311 320.162 188.031 316.926 192.728 C 316.060 193.985 312.235 198.273 308.426 202.256 C 300.951 210.075 293.000 219.472 293.000 220.489 C 293.000 220.835 290.765 223.454 288.034 226.309 C 281.024 233.637 276.005 239.592 275.971 240.621 C 275.956 241.105 273.029 244.425 269.467 248.000 C 265.905 251.575 262.737 255.288 262.428 256.250 C 262.118 257.213 261.498 258.000 261.049 258.000 C 260.600 258.000 259.989 258.933 259.691 260.074 C 259.393 261.215 258.215 262.393 257.074 262.691 C 255.933 262.989 255.000 263.631 255.000 264.117 C 255.000 265.348 249.581 265.222 246.734 263.925 C 245.436 263.333 243.502 261.196 242.437 259.175 C 241.372 257.154 237.350 252.219 233.500 248.209 C 229.650 244.198 225.715 239.485 224.755 237.733 C 223.795 235.982 219.183 230.704 214.505 226.005 C 209.827 221.305 206.000 217.084 206.000 216.624 C 206.000 215.399 200.209 208.263 194.750 202.761 C 192.138 200.128 190.000 197.356 190.000 196.602 C 190.000 195.847 188.875 194.493 187.500 193.592 C 186.125 192.691 185.000 191.525 185.000 191.002 C 185.000 190.478 181.738 186.703 177.750 182.612 C 173.763 178.521 170.050 174.518 169.500 173.716 C 166.277 169.018 159.799 161.092 157.116 158.563 C 155.402 156.948 154.000 155.035 154.000 154.313 C 154.000 153.591 153.550 153.000 153.000 153.000 C 152.450 153.000 152.000 152.431 152.000 151.735 C 152.000 151.039 149.310 147.776 146.023 144.485 C 142.735 141.193 140.035 138.096 140.023 137.603 C 139.989 136.258 133.527 128.627 126.085 121.144 C 122.451 117.490 118.426 113.019 117.141 111.209 C 115.272 108.575 114.525 108.150 113.402 109.081 C 111.250 110.868 111.341 163.208 113.500 165.000 C 114.325 165.685 115.000 166.994 115.000 167.910 C 115.000 168.826 117.250 171.791 120.000 174.500 C 122.750 177.209 125.000 180.004 125.000 180.712 C 125.000 181.421 125.381 182.000 125.847 182.000 C 126.313 182.000 127.101 182.874 127.597 183.943 C 128.094 185.012 132.156 189.654 136.624 194.259 C 141.092 198.863 145.085 203.692 145.497 204.990 C 145.908 206.287 148.356 209.407 150.936 211.924 C 153.516 214.441 156.641 217.963 157.881 219.750 C 159.121 221.538 160.737 223.000 161.470 223.000 C 162.204 223.000 163.245 224.265 163.784 225.810 C 164.323 227.356 165.379 229.285 166.132 230.096 C 172.108 236.539 178.919 244.254 181.000 246.939 C 182.375 248.712 187.348 254.289 192.052 259.332 C 196.756 264.374 201.770 270.300 203.194 272.500 C 204.619 274.700 208.196 279.007 211.142 282.071 C 216.274 287.407 218.267 289.930 219.644 292.830 C 219.991 293.561 223.363 297.386 227.136 301.330 C 230.909 305.273 234.253 309.288 234.566 310.250 C 234.879 311.213 235.554 312.000 236.067 312.000 C 236.580 312.000 237.000 312.572 237.000 313.271 C 237.000 314.636 254.005 332.000 255.341 332.000 C 256.371 332.000 259.000 329.384 259.000 328.359 C 259.000 327.928 260.776 325.759 262.946 323.538 C 265.116 321.317 268.153 317.617 269.696 315.317 C 271.238 313.016 276.213 307.281 280.750 302.573 C 285.288 297.865 289.000 293.713 289.000 293.347 C 289.000 292.715 294.058 287.010 305.069 275.221 C 307.781 272.318 310.000 269.281 310.000 268.471 C 310.000 267.662 310.450 267.000 311.000 267.000 C 311.550 267.000 312.000 266.478 312.000 265.840 C 312.000 265.203 314.363 262.082 317.250 258.906 C 320.138 255.730 324.525 250.783 327.000 247.914 C 329.475 245.044 333.075 241.050 335.000 239.038 C 343.859 229.781 347.767 225.248 349.561 222.148 C 350.627 220.305 354.521 215.649 358.213 211.802 C 361.905 207.955 365.198 203.951 365.531 202.904 C 365.863 201.857 366.554 201.000 367.067 201.000 C 367.580 201.000 368.000 200.478 368.000 199.840 C 368.000 198.761 372.916 193.086 383.585 181.850 C 386.013 179.293 388.000 176.789 388.000 176.287 C 388.000 175.785 389.356 174.075 391.013 172.487 L 394.026 169.600 393.763 136.967 C 393.535 108.655 393.304 104.398 392.018 104.827 "/></g>
<g fill="#C9223CFF" stroke="#C9223CFF">
<path d="M 398.500 361.000 C 398.098 361.650 375.156 362.000 332.941 362.000 L 268.000 362.000 268.000 374.483 L 268.000 386.965 303.338 386.733 C 332.270 386.542 339.159 386.757 341.338 387.919 C 343.879 389.274 345.098 393.000 343.000 393.000 C 342.450 393.000 342.000 393.622 342.000 394.382 C 342.000 395.142 332.550 405.267 321.000 416.882 C 304.520 433.455 299.447 438.000 297.429 438.000 C 292.529 438.000 292.000 436.352 292.000 421.071 L 292.000 407.000 281.169 407.000 C 270.937 407.000 270.276 407.124 269.212 409.250 C 267.693 412.284 267.755 409.946 267.885 459.250 C 267.983 496.460 268.214 503.000 269.430 503.000 C 271.020 503.000 294.318 480.220 295.273 477.732 C 295.605 476.865 297.895 474.658 300.361 472.828 C 302.827 470.998 305.071 468.679 305.348 467.676 C 305.625 466.672 306.785 465.607 307.926 465.309 C 309.067 465.011 310.000 464.300 310.000 463.730 C 310.000 462.315 371.213 401.012 372.633 401.005 C 373.257 401.002 374.011 400.067 374.309 398.926 C 374.607 397.785 375.672 396.625 376.676 396.348 C 377.679 396.071 380.261 393.629 382.414 390.922 C 384.566 388.215 386.832 386.000 387.448 386.000 C 388.065 386.000 389.353 384.672 390.313 383.048 C 391.272 381.424 393.506 379.077 395.278 377.831 C 399.482 374.875 401.000 373.368 401.000 372.149 C 401.000 371.603 402.800 369.615 405.000 367.732 C 407.200 365.849 408.996 363.901 408.992 363.404 C 408.972 361.033 399.781 358.927 398.500 361.000 "/></g>
<g fill="#C9223CFF" stroke="#C9223CFF">
<path d="M 237.012 10.000 L 150.523 10.500 174.281 34.250 L 198.039 58.000 207.961 58.000 C 213.496 58.000 218.155 57.558 218.500 57.000 C 219.333 55.652 256.667 55.652 257.500 57.000 C 258.286 58.272 298.228 58.357 299.550 57.089 C 300.073 56.588 304.583 56.026 309.573 55.839 C 316.403 55.584 319.061 55.085 320.323 53.821 C 321.245 52.898 322.000 51.769 322.000 51.312 C 322.000 50.855 331.000 41.490 342.000 30.500 C 353.000 19.510 362.000 10.290 362.000 10.009 C 361.999 9.375 345.368 9.374 237.012 10.000 "/></g>
<g fill="#C9223CFF" stroke="#C9223CFF">
<path d="M 105.619 362.807 C 105.345 363.251 130.967 389.463 162.556 421.057 C 194.146 452.651 219.994 478.870 219.996 479.321 C 220.002 480.476 222.173 482.488 224.273 483.283 C 225.248 483.653 226.347 484.752 226.715 485.727 C 227.519 487.857 232.484 493.000 233.736 493.000 C 234.805 493.000 240.000 498.288 240.000 499.376 C 240.000 500.697 242.787 503.000 244.386 503.000 C 245.746 503.000 245.892 495.369 245.708 434.250 L 245.500 365.500 233.750 365.218 L 222.000 364.937 222.000 399.294 L 222.000 433.651 219.686 435.826 C 216.128 439.168 212.789 438.616 208.616 433.997 C 206.627 431.796 205.000 429.539 205.000 428.982 C 205.000 428.426 203.569 427.100 201.820 426.037 C 200.071 424.973 184.643 410.130 167.536 393.052 L 136.431 362.000 121.275 362.000 C 112.938 362.000 105.894 362.363 105.619 362.807 "/></g>
<g fill="#F6F6F6FF" stroke="#F6F6F6FF">
<path d="M 393.000 207.917 C 393.000 208.513 392.348 209.000 391.551 209.000 C 390.754 209.000 388.841 210.687 387.301 212.749 C 385.760 214.811 384.050 217.104 383.500 217.844 C 382.480 219.218 375.115 227.662 371.500 231.603 C 370.400 232.802 366.800 237.006 363.500 240.946 C 360.200 244.885 355.588 250.221 353.250 252.802 C 350.913 255.384 349.000 258.258 349.000 259.189 C 349.000 260.120 348.549 261.161 347.998 261.501 C 347.360 261.896 347.025 273.533 347.075 293.517 C 347.151 323.580 347.236 324.940 349.077 325.524 C 352.315 326.552 358.000 323.843 358.000 321.273 C 358.000 320.231 373.518 305.000 374.579 305.000 C 374.985 305.000 378.627 301.513 382.672 297.250 C 386.717 292.988 391.376 288.122 393.025 286.437 L 396.024 283.374 395.762 245.520 C 395.560 216.315 395.214 207.571 394.250 207.250 C 393.563 207.021 393.000 207.321 393.000 207.917 "/></g>
<g fill="#F6F6F6FF" stroke="#F6F6F6FF">
<path d="M 112.381 213.449 C 112.076 214.246 112.098 220.208 112.430 226.699 C 112.763 233.189 112.977 240.300 112.905 242.500 C 112.724 248.079 112.719 266.736 112.898 268.250 C 112.979 268.938 112.760 271.788 112.411 274.584 C 111.933 278.419 112.207 280.499 113.524 283.047 C 115.255 286.394 120.246 292.000 121.495 292.000 C 122.329 292.000 125.000 294.661 125.000 295.493 C 125.000 295.843 126.454 297.338 128.232 298.815 C 130.010 300.292 136.351 306.225 142.324 312.000 C 148.297 317.775 153.511 322.623 153.910 322.773 C 154.310 322.923 155.243 321.914 155.983 320.531 C 157.037 318.562 157.077 317.464 156.164 315.461 C 154.620 312.072 154.651 289.311 156.210 281.761 C 157.157 277.177 157.157 275.481 156.210 273.965 C 155.545 272.899 155.000 269.421 155.000 266.236 C 155.000 260.666 153.911 257.884 150.276 254.163 C 149.557 253.428 147.739 251.178 146.236 249.163 C 144.732 247.149 142.376 244.311 141.001 242.859 C 139.625 241.406 137.644 239.156 136.597 237.859 C 135.551 236.561 132.851 233.405 130.597 230.845 C 128.344 228.285 126.050 225.583 125.500 224.840 C 120.192 217.668 115.269 212.086 114.219 212.047 C 113.514 212.021 112.687 212.652 112.381 213.449 "/></g>
<g fill="#C9223CFF" stroke="#C9223CFF">
<path d="M 349.747 452.806 C 348.276 455.029 345.256 458.307 343.036 460.091 C 340.816 461.875 339.000 464.189 339.000 465.234 C 339.000 468.373 351.971 484.000 354.576 484.000 C 355.280 484.000 356.803 485.238 357.962 486.750 C 361.411 491.250 372.913 503.000 373.870 503.000 C 374.357 503.000 375.315 503.675 376.000 504.500 C 377.018 505.726 380.188 505.986 393.372 505.921 C 402.243 505.878 408.938 505.615 408.250 505.338 C 407.563 505.060 407.000 504.262 407.000 503.563 C 407.000 502.864 402.613 497.823 397.250 492.359 C 391.888 486.896 384.718 479.405 381.318 475.713 C 377.918 472.021 374.796 469.000 374.381 469.000 C 373.967 469.000 369.721 464.950 364.947 460.000 C 360.173 455.050 355.569 451.000 354.717 451.000 C 353.864 451.000 352.999 450.497 352.794 449.882 C 352.589 449.268 351.218 450.583 349.747 452.806 "/></g>
<g fill="#C9223CFF" stroke="#C9223CFF">
<path d="M 142.738 466.761 C 134.082 475.430 127.000 483.029 127.000 483.649 C 127.000 484.268 125.566 485.838 123.813 487.137 C 120.518 489.580 113.934 496.008 108.224 502.357 L 104.949 506.000 120.571 506.000 L 136.193 506.000 140.737 502.000 C 143.237 499.800 145.616 498.000 146.024 498.000 C 146.433 498.000 147.001 497.102 147.288 496.005 C 147.575 494.908 148.640 493.696 149.655 493.311 C 151.995 492.424 153.424 490.995 154.311 488.655 C 154.696 487.640 155.908 486.575 157.005 486.288 C 158.102 486.001 159.000 485.400 159.000 484.951 C 159.000 484.502 159.944 483.835 161.099 483.469 C 163.958 482.561 167.000 479.372 167.000 477.281 C 167.000 476.336 169.308 473.226 172.129 470.370 L 177.258 465.176 169.879 458.111 C 165.811 454.216 161.597 451.035 160.488 451.023 C 159.207 451.008 152.764 456.721 142.738 466.761 "/></g>
</svg>
